<svg width="26" height="26" viewBox="0 0 26 26" fill="none" xmlns="http://www.w3.org/2000/svg">
<path d="M7.78156 9.13746C7.8684 9.04582 7.96827 9 8.08116 9C8.19406 9 8.29392 9.04582 8.38076 9.13746L13.5 14.5395L18.6192 9.13746C18.7061 9.04582 18.8059 9 18.9188 9C19.0317 9 19.1316 9.04582 19.2184 9.13746L19.8697 9.82474C19.9566 9.91638 20 10.0218 20 10.1409C20 10.26 19.9566 10.3654 19.8697 10.457L13.7996 16.8625C13.7128 16.9542 13.6129 17 13.5 17C13.3871 17 13.2872 16.9542 13.2004 16.8625L7.13026 10.457C7.04342 10.3654 7 10.26 7 10.1409C7 10.0218 7.04342 9.91638 7.13026 9.82474L7.78156 9.13746Z" fill="#1E2533"/>
</svg>
