<svg width="36" height="35" viewBox="0 0 36 35" fill="none" xmlns="http://www.w3.org/2000/svg">
<path d="M0.442969 0.587837C0.225 0.690376 0 1.03217 0 1.25776C0 1.47651 0.203906 1.83881 0.39375 1.96186C0.569531 2.07124 0.801562 2.09174 2.42578 2.11909C4.14844 2.15327 4.26797 2.1601 4.54922 2.31049C4.95 2.51557 5.30859 2.87788 5.50547 3.26752C5.59688 3.44526 6.85547 7.06147 8.29688 11.3066L10.9266 19.0175L10.8 19.3388C10.2867 20.6376 10.3078 20.5693 10.3008 21.3964C10.3008 22.039 10.3289 22.2646 10.4625 22.6406C10.8984 23.871 11.9391 24.7939 13.2539 25.122C13.8656 25.2724 30.3469 25.2792 30.6492 25.1288C31.2258 24.8349 31.2188 24.0283 30.6352 23.7001C30.5156 23.6386 28.575 23.6113 21.9727 23.5839L13.4648 23.5497L13.0852 23.3447C12.6984 23.1396 12.3539 22.7773 12.1219 22.3535C12.0305 22.1757 11.9953 21.957 11.9883 21.499C11.9883 20.9726 12.0164 20.8154 12.1852 20.4326C12.382 19.9882 12.3961 19.9746 12.6773 19.9335C12.8391 19.913 16.7836 19.5097 21.4453 19.038C26.107 18.5663 30.0938 18.1494 30.3047 18.1083C31.1484 17.9511 32.0273 17.5205 32.6531 16.9599C33.1102 16.5497 33.5812 15.8183 33.8203 15.1415C34.0805 14.4101 36.0141 6.35737 35.9719 6.18647C35.9227 5.98823 35.6836 5.7558 35.4375 5.6601C35.325 5.61909 30.2203 5.52338 21.6422 5.40717C14.1469 5.30463 8.00859 5.20893 7.9875 5.18842C7.97344 5.17475 7.79766 4.66889 7.59375 4.06733C7.07344 2.54292 6.88359 2.18061 6.29297 1.59956C5.75156 1.06635 5.0625 0.690376 4.37344 0.553658C4.1625 0.512642 3.27656 0.478462 2.33438 0.478462C0.963281 0.478462 0.625781 0.49897 0.442969 0.587837ZM22.9922 7.0478C29.0812 7.12983 34.0734 7.20502 34.0875 7.21869C34.1016 7.22553 33.7008 8.88666 33.1945 10.9169C32.2383 14.7314 32.0906 15.1757 31.6406 15.6474C31.282 16.0165 30.7758 16.3105 30.2977 16.4335C29.9039 16.5292 13.1766 18.2519 12.6 18.2519H12.382L11.3133 15.0869C10.7227 13.3505 9.85781 10.7802 9.37969 9.37201L8.51484 6.81537L10.2164 6.85639C11.1516 6.88373 16.9031 6.96576 22.9922 7.0478Z" fill="#FA7846"/>
<path d="M10.6877 27.3165C9.33771 27.5967 8.15646 28.7178 7.84005 30.0167C7.53771 31.2745 7.90333 32.5118 8.84552 33.4278C9.8088 34.3643 11.0604 34.7129 12.3682 34.419C13.0221 34.2686 13.6057 33.9336 14.1401 33.4141C14.9768 32.6006 15.3635 31.5 15.2018 30.3926C15.026 29.1963 14.2385 28.1436 13.1135 27.6172C12.2838 27.2208 11.5596 27.1319 10.6877 27.3165ZM12.4033 29.0801C13.1416 29.4288 13.5283 30.0645 13.5354 30.8985C13.5354 31.3018 13.5002 31.4727 13.3736 31.7188C13.1205 32.1836 12.6776 32.587 12.2486 32.7442C10.5401 33.3663 8.92286 31.794 9.56271 30.1329C9.76661 29.5997 10.3221 29.1143 10.969 28.9092C11.2924 28.8067 12.0026 28.8887 12.4033 29.0801Z" fill="#FA7846"/>
<path d="M26.5781 27.3164C25.8609 27.4668 25.2773 27.7813 24.7148 28.3281C23.9555 29.0664 23.625 29.832 23.625 30.8643C23.625 31.9033 23.9695 32.7236 24.7289 33.4551C26.1914 34.877 28.5117 34.877 29.9742 33.4551C30.7336 32.7236 31.0781 31.917 31.0781 30.9053C31.0781 29.8252 30.7617 29.0801 29.9883 28.3281C29.4187 27.7744 28.8422 27.4668 28.0898 27.3096C27.4922 27.1865 27.1758 27.1865 26.5781 27.3164ZM28.2094 29.0322C28.6312 29.2168 29.018 29.6064 29.2359 30.0645C29.693 31.0352 29.2711 32.1904 28.2867 32.6758C27.8016 32.9219 26.9016 32.9219 26.4164 32.6758C25.2633 32.1084 24.9398 30.7344 25.7062 29.6543C26.2195 28.9365 27.3305 28.6563 28.2094 29.0322Z" fill="#FA7846"/>
</svg>
