<svg width="30" height="30" viewBox="0 0 30 30" fill="none" xmlns="http://www.w3.org/2000/svg">
<g clip-path="url(#clip0_638_1751)">
<path d="M25.7227 0.802734C25.5703 0.855469 25.3418 1.01953 25.166 1.19531C24.9082 1.45898 24.7617 1.72852 23.8535 3.66211C23.291 4.85156 22.8223 5.83594 22.8164 5.84766C22.8106 5.85938 22.5821 5.80078 22.3184 5.71289C22.0489 5.63086 21.5391 5.50195 21.1817 5.4375C20.5664 5.32031 20.3262 5.31445 15.4688 5.29102C10.2188 5.26172 9.58596 5.28516 8.52541 5.50781C7.18362 5.7832 5.62502 6.46289 4.51174 7.25391C3.7969 7.75781 2.49026 9.06445 1.97463 9.78516C1.18948 10.8926 0.50393 12.457 0.234399 13.7695C-0.0292732 15.0352 -0.0644294 16.9453 0.140649 18.1348C0.533227 20.3555 1.55862 22.3477 3.09963 23.9062L3.62698 24.4395L3.50979 26.5547C3.43948 27.7207 3.40432 28.7578 3.42776 28.8633C3.47463 29.127 3.70315 29.2969 4.00784 29.2969C4.2012 29.2969 4.65237 29.0859 6.41604 28.1836L8.58401 27.0703H10.9688H13.3535L13.4707 26.918C13.6114 26.7363 13.6231 26.666 13.5235 26.4551C13.4063 26.1973 13.2129 26.1855 10.6641 26.2031L8.29104 26.2207L6.33401 27.2285C5.25588 27.7852 4.35354 28.2422 4.3301 28.2422C4.30666 28.2422 4.3008 28.0898 4.31252 27.9023C4.35354 27.3926 4.51174 24.416 4.51174 24.2227C4.51174 24.0879 4.41799 23.9648 4.05471 23.6133C1.9219 21.5742 0.87893 19.1191 0.87893 16.1602C0.87893 14.9297 1.03127 13.957 1.38284 12.8906C2.53127 9.43359 5.44924 6.93164 9.08205 6.29297C9.65041 6.1875 10.1016 6.18164 15.0293 6.18164C19.9043 6.18164 20.4082 6.19336 20.918 6.28711C21.6739 6.42773 22.3828 6.62695 22.3828 6.69727C22.3828 6.72656 22.0547 7.45312 21.6446 8.30859C20.8535 9.98438 20.8184 10.1133 21.1055 10.3301C21.2696 10.4531 21.4864 10.4355 21.6328 10.2891C21.6797 10.248 22.3418 8.88281 23.1153 7.25977C23.8828 5.63672 24.5215 4.29492 24.5274 4.2832C24.5449 4.26562 27.5215 5.66016 27.586 5.71289C27.6094 5.73047 22.3301 16.834 22.2774 16.8809C22.2129 16.9336 19.2481 15.4863 19.2656 15.4102C19.2715 15.375 19.6465 14.5664 20.0977 13.6172C20.5489 12.668 20.918 11.8301 20.918 11.7539C20.918 11.4492 20.4375 11.25 20.209 11.4609C20.1563 11.5078 19.6817 12.4512 19.1543 13.5527L18.1992 15.5566L18.041 17.9883C17.9473 19.3242 17.877 20.4375 17.877 20.4609C17.8711 20.4902 15.3164 20.5078 12.1992 20.5078C6.77346 20.5078 6.51565 20.5137 6.42776 20.6133C6.28713 20.7715 6.29885 21.1113 6.45119 21.2461C6.56838 21.3516 6.76174 21.3574 12.2871 21.375C17.2207 21.3867 18.0176 21.3984 18.1231 21.4746C18.1934 21.5215 18.3574 21.5625 18.4922 21.5625C18.791 21.5625 18.7266 21.6152 21.1114 19.3945L22.8457 17.7891L24.7617 13.7402C25.8164 11.5195 26.7012 9.67383 26.7246 9.64453C26.8242 9.52734 27.7969 10.957 28.1895 11.8125C28.7813 13.0898 29.0508 14.2441 29.1035 15.7324C29.168 17.666 28.8985 19.0605 28.1485 20.625C26.8184 23.4082 24.3633 25.3359 21.2813 26.0273C20.7539 26.1387 20.4903 26.1562 17.8418 26.1855C16.2656 26.209 14.9297 26.2441 14.877 26.2676C14.7774 26.3145 14.6485 26.5547 14.6485 26.6836C14.6485 26.7246 14.7071 26.8301 14.7715 26.918L14.8946 27.0762L17.8067 27.0586C20.5664 27.0352 20.7481 27.0293 21.3574 26.9004C25.166 26.1094 28.2305 23.4082 29.4492 19.7695C30.0528 17.9648 30.1699 15.7559 29.7656 13.7754C29.4434 12.1816 28.6524 10.5293 27.5801 9.2168C27.3633 8.95312 27.1875 8.71289 27.1875 8.68945C27.1875 8.66602 27.7207 7.52344 28.3711 6.15234L29.5606 3.66211L29.5781 3.20508C29.6016 2.78906 29.584 2.71289 29.4199 2.37305C29.1621 1.85742 28.8809 1.62891 27.8965 1.1543C27.0528 0.744141 27.0352 0.738281 26.5137 0.720703C26.1387 0.708984 25.9102 0.732422 25.7227 0.802734ZM27.6153 1.98633C28.2305 2.29102 28.4004 2.40234 28.541 2.5957C28.8164 2.97656 28.7871 3.23438 28.3477 4.1543L27.9785 4.92188L26.4727 4.20703C25.6406 3.80859 24.961 3.45703 24.961 3.42188C24.961 3.38672 25.1309 3.00586 25.3418 2.58398C25.7988 1.65234 25.9043 1.56445 26.4844 1.59961C26.8067 1.61719 26.9766 1.67578 27.6153 1.98633ZM21.6446 17.6016C21.709 17.625 20.584 18.7441 20.4903 18.75C20.461 18.75 20.0977 18.5859 19.6758 18.3867L18.9141 18.0234L18.9551 17.4082C18.9727 17.0684 19.002 16.6934 19.0196 16.5762L19.0489 16.3594L20.3145 16.9688C21.0117 17.3027 21.6094 17.584 21.6446 17.6016ZM19.711 19.3945C19.7578 19.4414 18.9551 20.2617 18.8145 20.3203C18.7735 20.332 18.7852 19.8516 18.8438 19.2949L18.8731 18.9902L19.2656 19.166C19.4824 19.2656 19.6817 19.3652 19.711 19.3945Z" fill="#1E2533"/>
<path d="M6.44532 11.1914C6.26953 11.3672 6.28711 11.6777 6.48633 11.8359C6.63868 11.9531 6.66797 11.9531 9.68555 11.9414L12.7266 11.9238L12.8379 11.7832C12.9902 11.5957 12.9785 11.3555 12.8145 11.2031L12.6797 11.0742H9.6211C6.63868 11.0742 6.55664 11.0801 6.44532 11.1914Z" fill="#FA7846"/>
<path d="M6.62115 14.2207C6.32232 14.332 6.22271 14.7188 6.44537 14.9414C6.56256 15.0586 6.63873 15.0586 11.5079 15.0586C16.1368 15.0586 16.459 15.0527 16.5762 14.9531C16.7696 14.8008 16.7579 14.4902 16.5587 14.3145L16.4005 14.1797L11.5547 14.1855C8.88873 14.1855 6.66803 14.2031 6.62115 14.2207Z" fill="#FA7846"/>
<path d="M6.44529 17.4609C6.2695 17.6367 6.28708 17.9473 6.48044 18.0996C6.63864 18.2227 6.66794 18.2227 11.4902 18.2227C14.9941 18.2227 16.3828 18.2051 16.4883 18.1582C16.6875 18.0645 16.7636 17.8242 16.6699 17.5957C16.6289 17.502 16.5527 17.4023 16.4941 17.3789C16.4414 17.3613 14.1855 17.3438 11.4785 17.3438C6.63865 17.3438 6.56247 17.3438 6.44529 17.4609Z" fill="#FA7846"/>
</g>
<defs>
<clipPath id="clip0_638_1751">
<rect width="30" height="30" fill="white"/>
</clipPath>
</defs>
</svg>
