<svg width="35" height="40" viewBox="0 0 35 40" fill="none" xmlns="http://www.w3.org/2000/svg">
<g opacity="0.65">
<path d="M3.04199 6.7265C2.52246 6.81244 1.64062 7.29682 1.2168 7.7265C0.820312 8.12494 0.430664 8.789 0.205078 9.45307L0.0341797 9.96088V19.9999V30.039L0.205078 30.5468C0.430664 31.2109 0.820312 31.8749 1.2168 32.2734C1.70898 32.7656 2.5293 33.1874 3.17871 33.289C3.54102 33.3359 8.44922 33.3593 17.876 33.3437L32.0264 33.3203L32.4707 33.1406C33.0244 32.9062 33.7559 32.3593 34.0771 31.9296C34.3916 31.5156 34.6719 30.9374 34.8359 30.3906C34.959 29.9765 34.9658 29.5234 34.9658 19.9999C34.9658 10.4765 34.959 10.0234 34.8359 9.60932C34.4463 8.28119 33.626 7.34369 32.457 6.85932L32.0264 6.67963L17.7393 6.67182C9.78223 6.664 3.26758 6.68744 3.04199 6.7265ZM32.1562 8.52338C32.9834 8.87494 33.4756 9.73432 33.5439 10.9374L33.585 11.6406H17.5H1.41504L1.44922 10.9531C1.50391 9.95307 1.79785 9.26557 2.37207 8.82025C2.98047 8.33588 1.90039 8.36713 17.4795 8.36713C31.7598 8.35932 31.7803 8.35932 32.1562 8.52338ZM33.4961 14.9999V16.6406H17.5H1.50391V14.9999V13.3593H17.5H33.4961V14.9999ZM33.5508 24.039L33.5303 29.7265L33.3525 30.164C33.127 30.7031 32.7441 31.1562 32.293 31.414L31.958 31.6015H17.5H3.04199L2.70703 31.414C2.25586 31.1562 1.87305 30.7031 1.64746 30.164L1.46973 29.7265L1.44922 24.039L1.42871 18.3593H17.5H33.5713L33.5508 24.039Z" fill="#1E2533"/>
<path d="M26.5028 21.7188C25.8056 21.9219 25.1903 22.5313 24.9511 23.2578C24.8212 23.6641 24.8075 23.8359 24.828 25.1094C24.8486 26.4219 24.8622 26.5547 25.0126 26.9063C25.2382 27.4219 25.6347 27.8594 26.1064 28.1172C26.4755 28.3125 26.537 28.3203 27.6513 28.3203C28.6015 28.3203 28.8818 28.2969 29.1757 28.1797C29.6542 27.9844 30.2148 27.3906 30.4267 26.8594C30.5839 26.4688 30.5907 26.3516 30.5907 25C30.5907 23.6484 30.5839 23.5313 30.4267 23.1406C30.2284 22.6328 29.6542 22.0234 29.2099 21.8359C28.8271 21.6719 26.9472 21.5938 26.5028 21.7188ZM28.8407 23.4844C29.1073 23.7031 29.1894 24.0547 29.1894 25C29.1894 26.5234 29.08 26.6406 27.7402 26.6406C26.3114 26.6406 26.2499 26.5781 26.2499 25C26.2499 23.8984 26.3183 23.6172 26.6191 23.4453C26.7011 23.4063 27.1933 23.3672 27.7196 23.3672C28.5058 23.3594 28.7109 23.3828 28.8407 23.4844Z" fill="#1E2533"/>
<path d="M4.73713 23.4531C4.34748 23.6719 4.27912 24.4062 4.62092 24.7734L4.79866 24.9609L9.38557 24.9844C13.5418 25.0078 13.9998 24.9922 14.1912 24.8828C14.6082 24.6328 14.6971 23.9687 14.3621 23.5859L14.1639 23.3594L9.52229 23.3672C6.45979 23.3672 4.83967 23.3984 4.73713 23.4531Z" fill="#1E2533"/>
<path d="M4.80566 26.7578C4.58008 26.8672 4.375 27.2188 4.375 27.5C4.375 27.7891 4.58008 28.1328 4.81934 28.25C5.16113 28.4141 13.7676 28.4141 14.1094 28.25C14.4033 28.1094 14.5605 27.8516 14.5605 27.5C14.5605 27.1484 14.4033 26.8906 14.1094 26.75C13.7744 26.5859 5.12695 26.5938 4.80566 26.7578Z" fill="#1E2533"/>
</g>
</svg>
