<svg width="54" height="48" viewBox="0 0 54 48" fill="none" xmlns="http://www.w3.org/2000/svg">
<g opacity="0.65" clip-path="url(#clip0_638_2999)">
<path d="M10.2303 11.4094C10.0193 11.4751 9.608 11.8219 9.46034 12.0469C9.38652 12.1594 9.31269 12.8438 9.28105 13.6876L9.22831 15.1407L7.17167 15.1969C6.04316 15.2251 5.10449 15.2532 5.08339 15.2626C5.0623 15.2719 4.98847 15.4126 4.91464 15.5813C4.71425 15.9938 4.84081 16.3313 5.28378 16.5282C5.61074 16.6782 6.0537 16.6876 10.9475 16.6688L16.2631 16.6407L16.5162 16.3782C16.8221 16.0594 16.8432 15.7594 16.5478 15.4313L16.3369 15.1876H13.6475H10.9685V14.0157V12.8438H24.9432H38.9178L38.8967 22.6126L38.865 32.3907L32.7162 32.4188C27.8541 32.4376 26.5674 32.4188 26.5252 32.3251C26.04 31.0688 25.5971 30.4688 24.7322 29.8876C23.3611 28.9594 21.3994 28.8188 19.8174 29.5407C18.8576 29.9719 17.9822 30.9188 17.592 31.9219L17.4127 32.3907L14.1959 32.4188L10.9685 32.4376V30.2813V28.1251H12.3924C13.6791 28.1251 13.8373 28.1063 14.0271 27.9376C14.3435 27.6563 14.3435 27.1594 14.0166 26.8594C13.8162 26.6719 13.6685 26.6719 8.11034 26.6719H2.40449L2.15136 26.9344C1.8455 27.2532 1.82441 27.5532 2.11972 27.8813L2.33066 28.1251H5.81113H9.28105V30.7876C9.28105 33.2626 9.29159 33.4594 9.48144 33.6657L9.68183 33.8907L13.5631 33.9376L17.4338 33.9844L17.5603 34.3594C18.0455 35.8219 19.4904 36.9469 21.2518 37.2282C23.3717 37.5751 25.7447 36.2907 26.3459 34.4813L26.5252 33.9376H34.1822H41.8287L41.9658 34.4063C42.2611 35.4188 43.242 36.4126 44.4338 36.8907C46.9228 37.9126 49.8127 36.8063 50.7197 34.5001L50.9201 33.9844L51.9115 33.9376C53.0084 33.8813 53.3353 33.7594 53.6939 33.2532C53.8943 32.9719 53.9049 32.8126 53.8732 30.1876C53.8416 27.4688 53.8416 27.4126 53.5779 26.8594C53.4303 26.5501 52.249 24.6094 50.9623 22.5469C48.4943 18.6001 48.1779 18.1969 47.3974 18.0094C47.1443 17.9438 45.7521 17.9063 43.801 17.9063H40.6158L40.5842 15.0657C40.5525 12.2719 40.5525 12.2344 40.31 11.9251C39.8037 11.2969 40.9322 11.3438 24.9221 11.3532C16.9275 11.3532 10.3146 11.3813 10.2303 11.4094ZM47.1021 19.5844C47.4502 19.9407 51.901 27.1594 52.0486 27.6001C52.1646 27.9563 52.2068 28.6032 52.2068 30.2532V32.4469L51.5635 32.4188L50.9307 32.3907L50.7514 31.9219C49.9498 29.8219 47.5662 28.6594 45.1932 29.2032C43.6639 29.5594 42.3666 30.6751 41.9236 32.0157C41.7971 32.3907 41.7971 32.3907 41.1959 32.4188L40.6053 32.4469V25.9219V19.4063H43.7693C46.733 19.4063 46.9439 19.4157 47.1021 19.5844ZM22.876 30.7126C23.5299 30.8813 24.2682 31.4438 24.5951 32.0063C24.901 32.5313 24.9642 33.4126 24.7428 34.0032C24.5107 34.6219 23.9412 35.1938 23.2662 35.5032C22.6123 35.8032 21.5049 35.8407 20.851 35.5876C20.2393 35.3532 19.5643 34.7438 19.3006 34.2001C19.0158 33.6001 19.0369 32.5969 19.3533 32.0157C19.7963 31.2188 20.9037 30.5813 21.8951 30.5719C22.1271 30.5626 22.5701 30.6282 22.876 30.7126ZM47.3869 30.7501C49.3908 31.4157 49.9076 33.8157 48.3256 35.0813C47.7139 35.5688 47.2182 35.7469 46.406 35.7469C44.7713 35.7563 43.5795 34.7719 43.474 33.3376C43.4213 32.5032 43.6744 31.9032 44.3389 31.3219C45.1615 30.6001 46.3006 30.3844 47.3869 30.7501Z" fill="#1E2533"/>
<path d="M9.75566 18.3C9.30215 18.5344 9.2916 18.6094 9.28105 20.9719V23.25H8.01543C6.80254 23.25 6.72871 23.2594 6.48613 23.4844C6.13809 23.7844 6.13809 24.2156 6.48613 24.5156L6.73926 24.75H14.4807C22.1588 24.75 22.2326 24.75 22.5068 24.5531C22.8971 24.2813 22.8971 23.7188 22.5068 23.4469C22.2326 23.25 22.1271 23.25 16.6006 23.25H10.9686V20.9906V18.7313L10.6627 18.4594C10.3357 18.1688 10.0932 18.1313 9.75566 18.3Z" fill="#1E2533"/>
<path d="M0.23186 19.4625C-0.126734 19.6875 -0.0950931 20.3532 0.284594 20.625C0.558813 20.8125 0.643188 20.8219 3.77561 20.7938L6.98186 20.7657L7.18225 20.5407C7.45647 20.2407 7.44592 19.7719 7.14006 19.5188C6.89749 19.3125 6.8342 19.3125 3.68069 19.3125C0.949048 19.3125 0.432251 19.3313 0.23186 19.4625Z" fill="#1E2533"/>
</g>
<defs>
<clipPath id="clip0_638_2999">
<rect width="54" height="48" fill="white"/>
</clipPath>
</defs>
</svg>
