<svg width="28" height="32" viewBox="0 0 28 32" fill="none" xmlns="http://www.w3.org/2000/svg">
<path d="M3.31479 0.113791C2.09262 0.464529 1.07068 1.25369 0.525193 2.26207C-0.0341078 3.28924 0.000416915 2.24955 0.000416915 15.966C0.000416915 29.6824 -0.0341078 28.6427 0.525193 29.6699C0.96711 30.4904 1.66451 31.1229 2.56906 31.5238C3.68766 32.0248 2.98336 31.9998 13.9691 31.9998C22.6487 31.9998 23.8225 31.9873 24.292 31.8996C26.0114 31.5802 27.4338 30.34 27.8757 28.7868C27.9931 28.3546 28 27.8661 28 18.5589V8.78207L27.7998 8.54407C27.5028 8.19333 19.0098 0.13258 18.8578 0.0574207C18.7681 0.0135784 16.2409 -0.00521088 11.2072 0.00105286C4.23315 0.00105286 3.66695 0.00731468 3.31479 0.113791ZM17.608 4.14103C17.608 7.07222 17.6357 7.2789 18.0362 7.96786C18.4643 8.69439 19.1755 9.25182 20.0662 9.56498L20.5427 9.73408L23.4289 9.75287L26.3083 9.77166V18.8408C26.3083 24.747 26.2807 28.0289 26.2392 28.2481C26.0321 29.2377 25.2173 30.0519 24.147 30.34C23.8432 30.4215 22.5589 30.434 14.0106 30.434C4.45411 30.434 4.21934 30.434 3.78433 30.3087C2.89359 30.0582 2.14095 29.3755 1.86475 28.5676C1.72666 28.173 1.72666 27.9538 1.72666 15.966C1.72666 3.92182 1.72666 3.75898 1.86475 3.35813C2.13405 2.56271 2.88669 1.88001 3.77052 1.62322C4.1572 1.51049 4.50935 1.50422 10.8964 1.50422L17.608 1.49796V4.14103ZM22.6141 5.81957L25.0723 8.16828L22.987 8.18707C20.9224 8.1996 20.9017 8.1996 20.5496 8.05554C20.0731 7.85512 19.7486 7.5858 19.5414 7.21627C19.3688 6.91564 19.3688 6.90937 19.3481 4.81746L19.3274 2.71929L19.7417 3.09508C19.9695 3.30176 21.2608 4.52935 22.6141 5.81957Z" fill="#FA7846"/>
<path d="M13.6238 10.7172C13.4512 10.8049 12.3602 11.8258 10.779 13.3603C8.74889 15.3457 8.2103 15.9032 8.17578 16.0723C8.12054 16.3478 8.26554 16.6986 8.50722 16.8614C8.72127 17.0055 9.16319 17.0305 9.40486 16.9178C9.50153 16.8677 10.3647 16.0597 11.3313 15.114L13.0852 13.3979L13.1197 17.7069C13.1474 20.9826 13.175 22.0411 13.2371 22.1475C13.389 22.3855 13.7067 22.5421 14.0312 22.5421C14.3557 22.5359 14.5283 22.4482 14.7217 22.1851C14.8391 22.0223 14.846 21.7655 14.846 17.7007C14.846 15.3332 14.8667 13.3979 14.9012 13.4041C14.9288 13.4041 15.7436 14.187 16.7103 15.1328C17.8911 16.2915 18.547 16.8927 18.7128 16.9491C19.2168 17.1433 19.8176 16.7675 19.8176 16.2602C19.8106 16.1161 19.7761 15.9407 19.7278 15.8656C19.5483 15.5775 14.5353 10.7674 14.3212 10.6734C14.0312 10.5481 13.9483 10.5544 13.6238 10.7172Z" fill="#FA7846"/>
<path d="M6.58739 25.2105C5.93142 25.5049 6.0419 26.4256 6.7531 26.6135C6.93263 26.6636 9.17674 26.6761 14.1552 26.6636C21.0394 26.6448 21.3087 26.6385 21.4951 26.5258C21.8818 26.2878 21.9923 25.8619 21.7506 25.5049C21.4744 25.0853 21.9578 25.1103 14.0033 25.1103C7.73361 25.1103 6.77382 25.1228 6.58739 25.2105Z" fill="#FA7846"/>
</svg>
