<svg width="54" height="53" viewBox="0 0 54 53" fill="none" xmlns="http://www.w3.org/2000/svg">
<path opacity="0.2" d="M41.7257 25.9883C41.7257 34.4381 34.7207 41.3133 26.1115 41.3133C17.5128 41.3133 10.5161 34.4381 10.5161 25.9883C10.5161 17.5386 17.5128 10.6633 26.1115 10.6633C34.7207 10.6633 41.7257 17.5386 41.7257 25.9883Z" fill="url(#paint0_linear_638_3084)"/>
<path d="M26.8868 13.4487C27.1733 13.5354 27.2953 13.6213 27.3948 13.708C27.4704 13.7946 27.5317 13.8805 27.436 13.9672C27.3387 14.0539 27.0985 14.1398 27.0536 14.2264C27.0005 14.3131 27.0813 14.399 27.222 14.4857C27.3686 14.5723 27.4786 14.6582 27.5198 14.7449C27.5766 14.8316 27.6357 14.9175 27.6118 15.0041C27.546 15.1767 27.3664 15.3493 26.8875 15.5226H26.7379C26.259 15.35 26.0794 15.1775 26.0136 15.0041C25.9889 14.9175 26.048 14.8316 26.1056 14.7449C26.146 14.6582 26.2568 14.5723 26.4034 14.4857C26.5441 14.399 26.6249 14.3131 26.5718 14.2264C26.5269 14.1398 26.2859 14.0539 26.1887 13.9672C26.0936 13.8805 26.1542 13.7946 26.2298 13.708C26.3293 13.6213 26.4505 13.5354 26.7379 13.4487H26.8868Z" fill="#1E2533"/>
<path d="M19.8169 15.4919C20.1094 15.4258 20.2591 15.4405 20.3885 15.467C20.4985 15.5044 20.595 15.5492 20.5561 15.6711C20.5157 15.7938 20.3519 15.9862 20.3571 16.0831C20.3549 16.1845 20.4693 16.219 20.6347 16.2248C20.806 16.2278 20.9452 16.2483 21.0245 16.3034C21.1181 16.3504 21.2131 16.396 21.2363 16.4826C21.267 16.6647 21.1996 16.9019 20.8734 17.2868L20.7439 17.3602C20.2411 17.4454 19.998 17.3844 19.8528 17.2669C19.7877 17.2038 19.7944 17.1002 19.8004 16.9974C19.7914 16.9027 19.8431 16.7734 19.9261 16.6273C20.0039 16.4833 20.0301 16.3688 19.9396 16.3203C19.8565 16.2674 19.6044 16.3108 19.4764 16.2836C19.35 16.2557 19.3582 16.1507 19.3799 16.039C19.4218 15.9157 19.4832 15.7813 19.6874 15.5654L19.8169 15.4919Z" fill="#1E2533"/>
<path d="M15.0893 20.5291C15.3093 20.3286 15.4462 20.2684 15.5719 20.2273C15.6864 20.206 15.7927 20.1971 15.8211 20.322C15.8488 20.4476 15.8046 20.695 15.8585 20.7766C15.9079 20.8654 16.0246 20.839 16.1713 20.7633C16.3209 20.6818 16.4518 20.6312 16.5484 20.64C16.6531 20.6348 16.7586 20.6275 16.823 20.6914C16.9419 20.8338 17.0048 21.0725 16.918 21.566L16.8432 21.6931C16.4511 22.014 16.2094 22.0793 16.0239 22.0492C15.9356 22.0265 15.8884 21.9332 15.8413 21.8414C15.7852 21.7636 15.7642 21.627 15.7612 21.4588C15.7552 21.2965 15.7201 21.1841 15.6168 21.1863C15.5181 21.1812 15.3213 21.3428 15.1971 21.3817C15.0729 21.4199 15.0272 21.3244 14.9891 21.2172C14.9621 21.0894 14.9472 20.9433 15.0145 20.6561L15.0893 20.5291Z" fill="#1E2533"/>
<path d="M13.5625 27.211C13.6508 26.9297 13.7383 26.81 13.8266 26.7124C13.9149 26.6382 14.0025 26.578 14.0908 26.672C14.179 26.7674 14.2666 27.0032 14.3549 27.0472C14.4432 27.0994 14.5307 27.0201 14.619 26.882C14.7073 26.7381 14.7948 26.6301 14.8831 26.5897C14.9714 26.5339 15.059 26.4759 15.1473 26.4994C15.3231 26.564 15.4997 26.7403 15.6755 27.2103V27.3571C15.4997 27.8271 15.3231 28.0034 15.1473 28.068C15.059 28.0922 14.9714 28.0342 14.8831 27.9777C14.7948 27.938 14.7073 27.8293 14.619 27.6854C14.5307 27.5473 14.4432 27.468 14.3549 27.5202C14.2666 27.5642 14.179 27.8007 14.0908 27.8962C14.0025 27.9894 13.9149 27.9299 13.8266 27.8558C13.7383 27.7581 13.6508 27.6391 13.5625 27.3571V27.211Z" fill="#1E2533"/>
<path d="M15.6441 33.7477C15.5767 33.4606 15.5925 33.3137 15.6186 33.1867C15.6568 33.0787 15.7024 32.984 15.8266 33.0222C15.9516 33.0618 16.1476 33.2227 16.2464 33.2183C16.3497 33.2205 16.3848 33.1081 16.3908 32.9458C16.3938 32.7776 16.4148 32.641 16.4709 32.5632C16.5188 32.4714 16.5652 32.3781 16.6534 32.3554C16.839 32.3253 17.0807 32.3914 17.4728 32.7123L17.5476 32.8393C17.6344 33.3328 17.5715 33.5715 17.4526 33.714C17.3882 33.7779 17.2827 33.7705 17.178 33.7654C17.0814 33.7742 16.9505 33.7235 16.8008 33.642C16.6542 33.5656 16.5375 33.5399 16.4881 33.6288C16.4342 33.7103 16.4784 33.9578 16.4507 34.0834C16.4222 34.2075 16.3152 34.1994 16.2015 34.1774C16.0758 34.1362 15.9389 34.076 15.7189 33.8755L15.6441 33.7477Z" fill="#1E2533"/>
<path d="M20.7755 38.3867C20.5712 38.1708 20.5099 38.0364 20.468 37.9131C20.4463 37.8007 20.4373 37.6964 20.5645 37.6685C20.6924 37.6413 20.9446 37.6847 21.0276 37.6318C21.1182 37.5833 21.0912 37.4688 21.0142 37.3248C20.9311 37.1779 20.8795 37.0494 20.8885 36.954C20.8832 36.8511 20.8758 36.7476 20.9409 36.6844C21.086 36.5669 21.3292 36.5053 21.832 36.5912L21.9614 36.6646C22.2884 37.0494 22.355 37.2866 22.3243 37.4688C22.3011 37.5554 22.2061 37.6017 22.1126 37.6479C22.0333 37.703 21.8941 37.7236 21.7228 37.7265C21.5574 37.7324 21.4429 37.7676 21.4452 37.8683C21.4399 37.9652 21.6045 38.1583 21.6449 38.2802C21.6838 38.4021 21.5866 38.4469 21.4773 38.4844C21.3471 38.5108 21.1982 38.5255 20.9057 38.4594L20.7755 38.3867Z" fill="#1E2533"/>
<path d="M26.8868 37.8125C27.1733 37.8992 27.2953 37.9851 27.3948 38.0717C27.4704 38.1584 27.5317 38.2443 27.436 38.331C27.3387 38.4176 27.0985 38.5036 27.0536 38.5902C27.0005 38.6769 27.0813 38.7628 27.222 38.8494C27.3686 38.9361 27.4786 39.022 27.5198 39.1087C27.5766 39.1953 27.6357 39.2813 27.6118 39.3679C27.546 39.5405 27.3664 39.7131 26.8875 39.8864H26.7379C26.259 39.7138 26.0794 39.5412 26.0136 39.3679C25.9889 39.2813 26.048 39.1953 26.1056 39.1087C26.146 39.022 26.2568 38.9361 26.4034 38.8494C26.5441 38.7628 26.6249 38.6769 26.5718 38.5902C26.5269 38.5036 26.2859 38.4176 26.1887 38.331C26.0936 38.2443 26.1542 38.1584 26.2298 38.0717C26.3293 37.9851 26.4505 37.8992 26.7379 37.8125H26.8868Z" fill="#1E2533"/>
<path d="M32.2288 36.5913C32.5213 36.5252 32.671 36.5406 32.8004 36.5663C32.9104 36.6038 33.0069 36.6486 32.968 36.7705C32.9276 36.8931 32.7638 37.0855 32.7682 37.1825C32.766 37.2838 32.8805 37.3183 33.0458 37.3242C33.2172 37.3272 33.3564 37.3477 33.4357 37.4028C33.5292 37.4498 33.6242 37.4953 33.6474 37.582C33.6781 37.7641 33.6108 38.0013 33.2845 38.3861L33.1551 38.4596C32.6523 38.5448 32.4091 38.4831 32.2639 38.3663C32.1988 38.3031 32.2056 38.1996 32.2116 38.0968C32.2026 38.0021 32.2542 37.8728 32.3373 37.7259C32.4151 37.582 32.4413 37.4674 32.3507 37.419C32.2677 37.3661 32.0155 37.4094 31.8876 37.3822C31.7611 37.3543 31.7693 37.2493 31.791 37.1377C31.8329 37.0143 31.8943 36.8799 32.0986 36.664L32.2288 36.5913Z" fill="#1E2533"/>
<path d="M36.5879 32.7115C36.8078 32.511 36.9448 32.45 37.0705 32.4097C37.1849 32.3884 37.2912 32.3795 37.3196 32.5036C37.3473 32.6292 37.3032 32.8767 37.357 32.9582C37.4064 33.0471 37.5231 33.0206 37.6698 32.945C37.8194 32.8635 37.9504 32.8128 38.0469 32.8216C38.1517 32.8165 38.2572 32.8092 38.3215 32.873C38.4405 33.0155 38.5033 33.2542 38.4165 33.7477L38.3417 33.8747C37.9496 34.1956 37.708 34.2617 37.5224 34.2316C37.4341 34.2089 37.387 34.1156 37.3398 34.0238C37.2837 33.946 37.2628 33.8094 37.2598 33.6412C37.2538 33.4789 37.2179 33.3665 37.1154 33.3687C37.0166 33.3636 36.8198 33.5252 36.6956 33.5648C36.5714 33.603 36.5257 33.5075 36.4876 33.4003C36.4607 33.2725 36.4457 33.1264 36.513 32.8393L36.5879 32.7115Z" fill="#1E2533"/>
<path d="M38.3857 27.211C38.474 26.9297 38.5616 26.81 38.6499 26.7124C38.7382 26.6382 38.8257 26.578 38.914 26.672C39.0023 26.7674 39.0898 27.0032 39.1781 27.0472C39.2664 27.0994 39.354 27.0201 39.4422 26.882C39.5305 26.7381 39.6181 26.6301 39.7064 26.5897C39.7947 26.5339 39.8822 26.4759 39.9705 26.4994C40.1463 26.564 40.3229 26.7403 40.4987 27.2103V27.3571C40.3229 27.8271 40.1463 28.0034 39.9705 28.068C39.8822 28.0922 39.7947 28.0342 39.7064 27.9777C39.6181 27.938 39.5305 27.8293 39.4422 27.6854C39.354 27.5473 39.2664 27.468 39.1781 27.5202C39.0898 27.5642 39.0023 27.8007 38.914 27.8962C38.8257 27.9894 38.7382 27.9299 38.6499 27.8558C38.5616 27.7581 38.474 27.6391 38.3857 27.3571V27.211Z" fill="#1E2533"/>
<path d="M37.1421 21.5659C37.0748 21.2787 37.0905 21.1319 37.1167 21.0048C37.1548 20.8969 37.2005 20.8021 37.3247 20.8403C37.4497 20.88 37.6457 21.0408 37.7445 21.0356C37.8477 21.0379 37.8829 20.9255 37.8889 20.7632C37.8919 20.595 37.9128 20.4584 37.9689 20.3806C38.0168 20.2888 38.0632 20.1955 38.1515 20.1728C38.3371 20.1426 38.5787 20.2087 38.9708 20.5289L39.0456 20.656C39.1324 21.1495 39.0696 21.3881 38.9506 21.5306C38.8863 21.5945 38.7808 21.5879 38.676 21.582C38.5795 21.5908 38.4478 21.5402 38.2989 21.4587C38.1522 21.3823 38.0355 21.3566 37.9861 21.4454C37.9323 21.5269 37.9764 21.7744 37.9487 21.9C37.9203 22.0241 37.8133 22.016 37.6996 21.9947C37.5739 21.9536 37.4369 21.8934 37.217 21.6929L37.1421 21.5659Z" fill="#1E2533"/>
<path d="M33.1876 17.2866C32.9833 17.0707 32.922 16.9363 32.8801 16.8129C32.8584 16.7005 32.8494 16.5963 32.9766 16.5684C33.1045 16.5412 33.3567 16.5845 33.4398 16.5316C33.5303 16.4832 33.5034 16.3686 33.4263 16.2247C33.3432 16.0778 33.2916 15.9493 33.3006 15.8545C33.2953 15.7517 33.2879 15.6482 33.353 15.585C33.4981 15.4683 33.7413 15.4066 34.2441 15.4918L34.3736 15.5652C34.7005 15.95 34.7671 16.1872 34.7365 16.3693C34.7133 16.456 34.6182 16.5023 34.5247 16.5485C34.4454 16.6036 34.3062 16.6242 34.1349 16.6271C33.9695 16.633 33.855 16.6675 33.8573 16.7688C33.852 16.8658 34.0166 17.0589 34.0563 17.1808C34.0952 17.3027 33.9979 17.3475 33.8887 17.385C33.7585 17.4114 33.6096 17.4261 33.317 17.36L33.1876 17.2866Z" fill="#1E2533"/>
<path d="M26.8869 17.3234C27.2176 18.1011 27.3583 18.8795 27.4421 19.658C27.5274 20.4364 27.5236 21.2148 27.3074 21.994C27.0994 22.7732 26.9946 23.5524 27.0949 24.3308C27.169 25.1092 27.4264 25.8869 27.4959 26.6654L27.5244 26.9841L27.246 27.1721C27.1944 27.2074 27.249 27.294 27.3089 27.0238C27.3283 26.8835 27.2393 26.7131 27.1749 26.6602C27.1106 26.5978 27.0784 26.5861 27.059 26.5736C26.9557 26.5538 27.1637 26.5494 27.2939 26.5398L27.7092 26.5134C28.2629 26.4803 28.8166 26.495 29.3703 26.5442C30.4776 26.647 31.5843 26.8152 32.6917 27.2118V27.3586C31.5843 27.7559 30.4776 27.9234 29.3703 28.0262C28.8166 28.0754 28.2629 28.0901 27.7092 28.057L27.2939 28.0306C27.148 28.01 27.0754 28.0431 26.7013 27.9601C26.5487 27.9146 26.3856 27.8463 26.218 27.6928C26.0503 27.5503 25.8955 27.2455 25.9231 26.9694C26.004 26.4216 26.2801 26.2967 26.4357 26.1645L26.1865 26.6713C26.2509 25.8921 26.5038 25.1129 26.5726 24.3337C26.6684 23.5546 26.5577 22.7761 26.3452 21.9984C26.1237 21.2207 26.1154 20.4415 26.1955 19.6631C26.2748 18.8839 26.4102 18.1047 26.7357 17.3256L26.8869 17.3234Z" fill="url(#paint1_linear_638_3084)"/>
<path d="M43.8875 26.6676C43.8777 30.985 42.3109 35.3678 39.223 38.6394C36.1896 41.9434 31.5932 43.8733 27.0275 43.7602C24.7491 43.7 22.4962 43.183 20.4461 42.2687C18.3951 41.3507 16.55 40.0465 14.9929 38.4837C11.8773 35.3604 9.96031 31.0974 9.8376 26.6676C9.67374 22.2452 11.4433 17.7332 14.6667 14.5313C16.2664 12.9252 18.1924 11.6254 20.3069 10.7375C22.4199 9.84376 24.7297 9.40534 27.0283 9.40314C29.3261 9.43251 31.6284 9.88195 33.7257 10.794C35.8305 11.6878 37.7145 13.0405 39.2394 14.6804C42.3177 17.9645 43.8942 22.3473 43.8875 26.6676ZM43.7378 26.6676C43.7191 24.521 43.2589 22.3759 42.3386 20.443C41.4243 18.5101 40.1238 16.7733 38.5428 15.3633C35.3748 12.5544 31.2259 10.9321 27.0275 10.9696C22.8412 10.9747 18.6757 12.6028 15.6626 15.508C12.6442 18.3971 10.7916 22.4493 10.6569 26.6676C10.6098 28.7694 10.9502 30.9042 11.7628 32.8753C12.5604 34.85 13.792 36.6573 15.3371 38.1474C18.4438 41.1429 22.8075 42.6653 27.0283 42.5375C31.267 42.4516 35.3943 40.8154 38.56 37.9873C40.1366 36.5692 41.437 34.8309 42.3513 32.8966C43.2694 30.9615 43.7258 28.8135 43.7378 26.6676Z" fill="#1E2533"/>
<path d="M41.9369 10.2144C42.3447 10.1813 42.641 10.2577 42.9126 10.3583C43.1775 10.4655 43.4004 10.6139 43.5883 10.7967C43.7761 10.9796 43.9272 11.1984 44.0364 11.4584C44.1397 11.7242 44.216 12.0165 44.1816 12.4175C43.7731 12.4513 43.4753 12.3764 43.2044 12.275C42.9395 12.1678 42.7166 12.0194 42.5302 11.8351C42.3439 11.6508 42.1928 11.4319 42.0836 11.172C41.981 10.9054 41.904 10.6146 41.9369 10.2144Z" fill="url(#paint2_linear_638_3084)"/>
<path d="M45.7526 12.4176C45.7189 12.0174 45.7967 11.7266 45.8992 11.46C46.0085 11.2 46.1596 10.9812 46.3459 10.7969C46.5322 10.6125 46.7552 10.4642 47.0201 10.357C47.291 10.2556 47.5888 10.1807 47.9973 10.2145C48.0317 10.6155 47.9554 10.9078 47.8521 11.1736C47.7429 11.4336 47.5917 11.6524 47.4039 11.8353C47.2161 12.0181 46.9932 12.1665 46.7283 12.2737C46.4574 12.3743 46.1604 12.4507 45.7526 12.4176Z" fill="url(#paint3_linear_638_3084)"/>
<path d="M44.1808 13.9597C44.2145 14.3599 44.1367 14.6508 44.0342 14.9173C43.9249 15.1773 43.7738 15.3962 43.5875 15.5805C43.4012 15.7648 43.1782 15.9132 42.9133 16.0204C42.6424 16.1217 42.3446 16.1966 41.9361 16.1628C41.9017 15.7619 41.978 15.4696 42.0813 15.2037C42.1905 14.9438 42.3416 14.7249 42.5295 14.5421C42.7173 14.3592 42.9402 14.2109 43.2051 14.1036C43.4767 14.003 43.7738 13.9267 44.1808 13.9597Z" fill="url(#paint4_linear_638_3084)"/>
<path d="M47.9977 16.1628C47.5899 16.1958 47.2936 16.1194 47.022 16.0188C46.7571 15.9116 46.5342 15.7633 46.3463 15.5804C46.1585 15.3975 46.0074 15.1787 45.8982 14.9187C45.7949 14.6529 45.7186 14.3606 45.753 13.9596C46.1615 13.9258 46.4593 14.0008 46.7302 14.1021C46.9951 14.2093 47.218 14.3577 47.4043 14.542C47.5907 14.7263 47.7418 14.9452 47.851 15.2051C47.9543 15.4717 48.0314 15.7625 47.9977 16.1628Z" fill="url(#paint5_linear_638_3084)"/>
<path d="M9.53939 39.8871C9.8152 39.8647 10.0156 39.9164 10.1993 39.9844C10.3785 40.0569 10.5293 40.1573 10.6563 40.2809C10.7833 40.4046 10.8856 40.5526 10.9594 40.7285C11.0293 40.9083 11.0809 41.106 11.0576 41.3772C10.7813 41.4 10.5799 41.3494 10.3967 41.2808C10.2175 41.2083 10.0667 41.108 9.94071 40.9833C9.81469 40.8586 9.71247 40.7106 9.63858 40.5348C9.56925 40.3545 9.51712 40.1578 9.53939 39.8871Z" fill="url(#paint6_linear_638_3084)"/>
<path d="M12.1196 41.3772C12.0969 41.1065 12.1495 40.9098 12.2188 40.7295C12.2927 40.5537 12.3949 40.4056 12.521 40.281C12.647 40.1563 12.7978 40.056 12.9769 39.9834C13.1601 39.9149 13.3616 39.8642 13.6379 39.8871C13.6612 40.1583 13.6095 40.356 13.5397 40.5358C13.4658 40.7116 13.3636 40.8596 13.2366 40.9833C13.1095 41.107 12.9587 41.2073 12.7796 41.2799C12.5964 41.3479 12.3955 41.3996 12.1196 41.3772Z" fill="url(#paint7_linear_638_3084)"/>
<path d="M11.0566 42.4202C11.0794 42.6909 11.0268 42.8876 10.9574 43.0679C10.8835 43.2437 10.7813 43.3918 10.6553 43.5164C10.5293 43.6411 10.3785 43.7414 10.1993 43.814C10.0161 43.8825 9.8147 43.9332 9.53838 43.9103C9.5151 43.6391 9.56672 43.4414 9.63656 43.2616C9.71044 43.0858 9.81267 42.9378 9.9397 42.8141C10.0667 42.6904 10.2175 42.5901 10.3967 42.5176C10.5804 42.4495 10.7813 42.3978 11.0566 42.4202Z" fill="url(#paint8_linear_638_3084)"/>
<path d="M13.6382 43.9104C13.3623 43.9327 13.1619 43.881 12.9782 43.813C12.7991 43.7405 12.6483 43.6401 12.5212 43.5165C12.3942 43.3928 12.292 43.2448 12.2181 43.0689C12.1483 42.8891 12.0966 42.6914 12.1199 42.4202C12.3962 42.3974 12.5977 42.448 12.7809 42.5166C12.96 42.5891 13.1108 42.6894 13.2368 42.8141C13.3628 42.9388 13.4651 43.0868 13.539 43.2626C13.6088 43.443 13.6609 43.6396 13.6382 43.9104Z" fill="url(#paint9_linear_638_3084)"/>
<defs>
<linearGradient id="paint0_linear_638_3084" x1="10.5157" y1="25.9882" x2="41.7254" y2="25.9882" gradientUnits="userSpaceOnUse">
<stop offset="1.58946e-07" stop-color="#FC8C5F"/>
<stop offset="1" stop-color="#FA7846"/>
</linearGradient>
<linearGradient id="paint1_linear_638_3084" x1="25.8676" y1="22.6986" x2="32.6923" y2="22.6986" gradientUnits="userSpaceOnUse">
<stop offset="1.58946e-07" stop-color="#FC8C5F"/>
<stop offset="1" stop-color="#FA7846"/>
</linearGradient>
<linearGradient id="paint2_linear_638_3084" x1="41.1889" y1="11.3162" x2="44.9301" y2="11.3162" gradientUnits="userSpaceOnUse">
<stop offset="1.58946e-07" stop-color="#FC8C5F"/>
<stop offset="1" stop-color="#FA7846"/>
</linearGradient>
<linearGradient id="paint3_linear_638_3084" x1="45.0046" y1="11.3158" x2="48.7457" y2="11.3158" gradientUnits="userSpaceOnUse">
<stop offset="1.58946e-07" stop-color="#FC8C5F"/>
<stop offset="1" stop-color="#FA7846"/>
</linearGradient>
<linearGradient id="paint4_linear_638_3084" x1="41.1881" y1="15.0616" x2="44.9293" y2="15.0616" gradientUnits="userSpaceOnUse">
<stop offset="1.58946e-07" stop-color="#FC8C5F"/>
<stop offset="1" stop-color="#FA7846"/>
</linearGradient>
<linearGradient id="paint5_linear_638_3084" x1="45.005" y1="15.0609" x2="48.7462" y2="15.0609" gradientUnits="userSpaceOnUse">
<stop offset="1.58946e-07" stop-color="#FC8C5F"/>
<stop offset="1" stop-color="#FA7846"/>
</linearGradient>
<linearGradient id="paint6_linear_638_3084" x1="9.03346" y1="40.6323" x2="11.5639" y2="40.6323" gradientUnits="userSpaceOnUse">
<stop offset="1.58946e-07" stop-color="#FC8C5F"/>
<stop offset="1" stop-color="#FA7846"/>
</linearGradient>
<linearGradient id="paint7_linear_638_3084" x1="11.6137" y1="40.6319" x2="14.1441" y2="40.6319" gradientUnits="userSpaceOnUse">
<stop offset="1.58946e-07" stop-color="#FC8C5F"/>
<stop offset="1" stop-color="#FA7846"/>
</linearGradient>
<linearGradient id="paint8_linear_638_3084" x1="9.03245" y1="43.1655" x2="11.5629" y2="43.1655" gradientUnits="userSpaceOnUse">
<stop offset="1.58946e-07" stop-color="#FC8C5F"/>
<stop offset="1" stop-color="#FA7846"/>
</linearGradient>
<linearGradient id="paint9_linear_638_3084" x1="11.614" y1="43.1651" x2="14.1444" y2="43.1651" gradientUnits="userSpaceOnUse">
<stop offset="1.58946e-07" stop-color="#FC8C5F"/>
<stop offset="1" stop-color="#FA7846"/>
</linearGradient>
</defs>
</svg>
