<svg width="183" height="53" viewBox="0 0 183 53" fill="none" xmlns="http://www.w3.org/2000/svg">
<g clip-path="url(#clip0_638_2352)">
<path d="M127.945 52.6988V49.19C127.965 48.8949 127.923 48.5987 127.822 48.3214C127.72 48.044 127.561 47.7917 127.356 47.5815C127.15 47.3712 126.903 47.2076 126.63 47.1018C126.357 46.996 126.065 46.9503 125.773 46.9678C125.392 46.9426 125.01 47.0215 124.669 47.1964C124.327 47.3712 124.039 47.6356 123.833 47.9619C123.645 47.6453 123.376 47.3859 123.055 47.211C122.734 47.036 122.372 46.952 122.007 46.9678C121.69 46.9516 121.373 47.0197 121.09 47.1654C120.806 47.311 120.565 47.5292 120.39 47.7982V47.1082H119.188V52.6989H120.401V49.5993C120.375 49.4081 120.391 49.2133 120.448 49.029C120.505 48.8447 120.602 48.6755 120.731 48.5335C120.86 48.3915 121.019 48.2802 121.195 48.2077C121.372 48.1351 121.563 48.1031 121.753 48.114C122.55 48.114 122.955 48.6403 122.955 49.5876V52.6988H124.167V49.5993C124.143 49.4084 124.161 49.2144 124.218 49.031C124.276 48.8476 124.373 48.6793 124.501 48.5377C124.63 48.3961 124.788 48.2848 124.964 48.2116C125.14 48.1384 125.329 48.1051 125.519 48.114C126.339 48.114 126.732 48.6403 126.732 49.5876V52.6988H127.945ZM145.897 47.1081H143.933V45.4122H142.72V47.1081H141.6V48.2192H142.72V50.769C142.72 52.0672 143.217 52.8392 144.638 52.8392C145.169 52.8408 145.689 52.6908 146.14 52.4064L145.793 51.3654C145.471 51.56 145.105 51.6687 144.73 51.6813C144.13 51.6813 143.933 51.3069 143.933 50.7456V48.2192H145.897V47.1081ZM156.144 46.9678C155.851 46.959 155.561 47.0304 155.305 47.1745C155.049 47.3186 154.836 47.5301 154.688 47.7865V47.1081H153.499V52.6988H154.7V49.5642C154.7 48.6403 155.093 48.1256 155.878 48.1256C156.135 48.1221 156.39 48.1698 156.629 48.266L156.999 47.1198C156.725 47.0204 156.435 46.969 156.144 46.9678H156.144ZM140.652 47.5525C139.972 47.1431 139.19 46.9402 138.4 46.9678C137.002 46.9678 136.101 47.6461 136.101 48.7572C136.101 49.6696 136.771 50.231 138.007 50.4064L138.573 50.4882C139.231 50.5817 139.543 50.7572 139.543 51.073C139.543 51.5057 139.104 51.7515 138.284 51.7515C137.624 51.7707 136.978 51.5647 136.447 51.1666L135.881 52.114C136.581 52.6088 137.419 52.863 138.273 52.8392C139.867 52.8392 140.791 52.0789 140.791 51.0146C140.791 50.0321 140.063 49.5174 138.862 49.342L138.296 49.2601C137.776 49.19 137.36 49.0848 137.36 48.7105C137.36 48.3011 137.753 48.0555 138.411 48.0555C139.016 48.0647 139.608 48.2298 140.132 48.535L140.652 47.5525ZM172.837 46.9678C172.544 46.959 172.254 47.0304 171.998 47.1745C171.742 47.3186 171.529 47.5301 171.381 47.7865V47.1081H170.191V52.6988H171.393V49.5642C171.393 48.6403 171.786 48.1256 172.571 48.1256C172.828 48.1221 173.083 48.1698 173.322 48.266L173.692 47.1198C173.417 47.0204 173.128 46.969 172.837 46.9678ZM157.357 49.9033C157.341 50.2972 157.407 50.69 157.55 51.0567C157.693 51.4233 157.91 51.7556 158.187 52.0321C158.465 52.3086 158.796 52.5233 159.161 52.6623C159.525 52.8013 159.914 52.8616 160.303 52.8392C161.024 52.8759 161.733 52.638 162.289 52.1724L161.712 51.1899C161.297 51.5105 160.79 51.6869 160.268 51.6929C159.818 51.6653 159.395 51.4647 159.086 51.1321C158.776 50.7996 158.604 50.3601 158.604 49.9034C158.604 49.4467 158.776 49.0072 159.086 48.6747C159.395 48.3421 159.818 48.1415 160.268 48.1139C160.79 48.1199 161.297 48.2963 161.712 48.6169L162.289 47.6344C161.733 47.1689 161.024 46.9311 160.303 46.9677C159.914 46.9454 159.525 47.0056 159.161 47.1446C158.796 47.2836 158.465 47.4982 158.187 47.7747C157.91 48.0512 157.693 48.3834 157.55 48.75C157.407 49.1166 157.341 49.5095 157.357 49.9033ZM168.609 49.9033V47.1081H167.407V47.7865C167.202 47.5189 166.937 47.305 166.633 47.1625C166.33 47.0201 165.997 46.9533 165.663 46.9678C164.918 47.0047 164.216 47.3301 163.702 47.8766C163.188 48.4231 162.902 49.1488 162.902 49.9035C162.902 50.6581 163.188 51.3839 163.702 51.9304C164.216 52.4769 164.918 52.8023 165.663 52.8392C165.997 52.8537 166.33 52.7869 166.633 52.6444C166.937 52.5019 167.202 52.288 167.407 52.0204V52.6988H168.609V49.9033ZM164.138 49.9033C164.157 49.5734 164.27 49.2562 164.465 48.9909C164.659 48.7256 164.926 48.5237 165.233 48.4102C165.539 48.2967 165.872 48.2764 166.19 48.352C166.507 48.4276 166.796 48.5957 167.021 48.8355C167.245 49.0754 167.396 49.3765 167.453 49.7018C167.511 50.027 167.473 50.3622 167.345 50.666C167.216 50.9698 167.003 51.2289 166.731 51.4114C166.458 51.5939 166.14 51.6917 165.813 51.6929C165.584 51.696 165.357 51.6511 165.147 51.5611C164.936 51.471 164.746 51.3377 164.588 51.1696C164.431 51.0015 164.31 50.8021 164.232 50.5842C164.155 50.3663 164.123 50.1344 164.138 49.9033ZM149.64 46.9677C148.891 47.0077 148.186 47.3398 147.674 47.8945C147.161 48.4492 146.88 49.1833 146.891 49.9428C146.901 50.7024 147.202 51.4283 147.73 51.9683C148.257 52.5083 148.971 52.8204 149.721 52.8392C150.545 52.8685 151.351 52.5895 151.985 52.0554L151.396 51.1549C150.94 51.5251 150.375 51.7308 149.79 51.7397C149.393 51.7735 148.999 51.6496 148.69 51.3941C148.382 51.1387 148.184 50.7718 148.138 50.3712H152.239C152.251 50.2192 152.262 50.0671 152.262 49.9033C152.297 49.5326 152.256 49.1586 152.14 48.8051C152.024 48.4516 151.837 48.1264 151.59 47.8502C151.344 47.574 151.043 47.3529 150.707 47.201C150.371 47.049 150.008 46.9696 149.64 46.9677ZM149.617 48.0555C149.98 48.0484 150.331 48.1872 150.593 48.4415C150.855 48.6958 151.006 49.0449 151.015 49.4123H148.15C148.171 49.037 148.336 48.6849 148.61 48.4313C148.885 48.1778 149.246 48.0429 149.617 48.0555ZM179.757 49.9034V44.8626H178.555V47.7867C178.35 47.5191 178.085 47.3052 177.781 47.1627C177.478 47.0203 177.145 46.9535 176.811 46.9679C176.066 47.0048 175.364 47.3303 174.85 47.8768C174.336 48.4233 174.05 49.149 174.05 49.9037C174.05 50.6583 174.336 51.3841 174.85 51.9306C175.364 52.4771 176.066 52.8025 176.811 52.8394C177.145 52.8538 177.478 52.787 177.781 52.6445C178.085 52.5021 178.35 52.2881 178.555 52.0205V52.6989H179.757V49.9034ZM181.759 51.8887C181.834 51.8882 181.908 51.903 181.977 51.9323C182.043 51.9602 182.103 52.0007 182.154 52.0514C182.205 52.1021 182.246 52.1622 182.274 52.2285C182.303 52.2966 182.318 52.3699 182.318 52.444C182.318 52.5181 182.303 52.5915 182.274 52.6596C182.245 52.7256 182.205 52.7854 182.154 52.8359C182.103 52.8867 182.043 52.9273 181.977 52.9557C181.908 52.9855 181.834 53.0006 181.759 53C181.649 53.0012 181.542 52.9695 181.449 52.9089C181.357 52.8484 181.285 52.7617 181.241 52.6596C181.212 52.5915 181.197 52.5181 181.197 52.444C181.197 52.3699 181.212 52.2966 181.241 52.2285C181.269 52.1623 181.309 52.1022 181.36 52.0514C181.411 52.0003 181.471 51.9598 181.538 51.9323C181.608 51.9029 181.683 51.888 181.759 51.8886L181.759 51.8887ZM181.759 52.8775C181.816 52.8779 181.873 52.8663 181.925 52.8434C181.975 52.8214 182.021 52.7899 182.059 52.7508C182.109 52.7007 182.145 52.6391 182.166 52.5714C182.187 52.5036 182.19 52.4318 182.177 52.3622C182.164 52.2926 182.134 52.2274 182.09 52.1723C182.046 52.1171 181.989 52.0738 181.925 52.046C181.872 52.0235 181.816 52.0121 181.759 52.0126C181.701 52.0122 181.644 52.0235 181.591 52.046C181.54 52.0673 181.493 52.0985 181.454 52.1378C181.374 52.2194 181.329 52.3295 181.329 52.4443C181.329 52.5591 181.374 52.6692 181.454 52.7508C181.493 52.7903 181.54 52.8217 181.591 52.8434C181.644 52.8663 181.701 52.8778 181.759 52.8774L181.759 52.8775ZM181.792 52.1841C181.846 52.1806 181.899 52.1963 181.943 52.2285C181.96 52.2431 181.974 52.2615 181.984 52.2824C181.993 52.3033 181.997 52.3261 181.996 52.349C181.997 52.3686 181.993 52.3881 181.986 52.4063C181.979 52.4245 181.968 52.4409 181.954 52.4545C181.92 52.4846 181.878 52.5025 181.833 52.5056L182 52.7004H181.87L181.715 52.507H181.665V52.7004H181.556V52.1841H181.792ZM181.665 52.2809V52.4185H181.79C181.814 52.4197 181.838 52.4138 181.859 52.4014C181.867 52.3957 181.874 52.3879 181.879 52.3787C181.883 52.3695 181.885 52.3593 181.884 52.349C181.885 52.339 181.883 52.329 181.878 52.32C181.874 52.311 181.867 52.3034 181.859 52.2979C181.838 52.2856 181.814 52.2797 181.79 52.2809H181.665ZM175.286 49.9033C175.305 49.5734 175.418 49.2563 175.613 48.991C175.807 48.7257 176.074 48.5238 176.381 48.4103C176.687 48.2968 177.02 48.2766 177.338 48.3522C177.655 48.4278 177.944 48.5959 178.169 48.8357C178.393 49.0756 178.543 49.3767 178.601 49.7019C178.658 50.0272 178.621 50.3624 178.492 50.6662C178.364 50.9699 178.15 51.229 177.878 51.4115C177.606 51.5939 177.287 51.6917 176.961 51.6929C176.732 51.696 176.505 51.6511 176.294 51.561C176.084 51.471 175.894 51.3377 175.736 51.1695C175.579 51.0014 175.458 50.8021 175.38 50.5842C175.303 50.3662 175.271 50.1344 175.286 49.9033ZM134.715 49.9033V47.1081H133.513V47.7865C133.308 47.5189 133.043 47.305 132.739 47.1625C132.436 47.0201 132.103 46.9533 131.769 46.9678C131.024 47.0047 130.322 47.3301 129.808 47.8766C129.294 48.4231 129.008 49.1488 129.008 49.9035C129.008 50.6581 129.294 51.3839 129.808 51.9304C130.322 52.4769 131.024 52.8023 131.769 52.8392C132.103 52.8537 132.436 52.7869 132.739 52.6444C133.043 52.502 133.308 52.2881 133.513 52.0205V52.6989H134.715L134.715 49.9033ZM130.244 49.9033C130.263 49.5734 130.376 49.2563 130.571 48.991C130.765 48.7257 131.032 48.5238 131.339 48.4103C131.645 48.2968 131.978 48.2766 132.296 48.3522C132.613 48.4278 132.902 48.5959 133.127 48.8357C133.351 49.0756 133.502 49.3767 133.559 49.702C133.617 50.0272 133.579 50.3624 133.45 50.6662C133.322 50.9699 133.108 51.229 132.836 51.4115C132.564 51.5939 132.245 51.6917 131.919 51.6929C131.69 51.696 131.463 51.6511 131.253 51.561C131.042 51.471 130.852 51.3377 130.694 51.1695C130.537 51.0014 130.416 50.8021 130.338 50.5842C130.261 50.3662 130.229 50.1344 130.244 49.9033Z" fill="#231F20"/>
<path d="M158.451 4.50171H140.254V37.6098H158.451V4.50171Z" fill="#FF5F00"/>
<path d="M141.409 21.0557C141.407 17.8672 142.12 14.7198 143.496 11.8517C144.873 8.98373 146.875 6.47029 149.353 4.50171C146.285 2.0602 142.6 0.541873 138.72 0.120252C134.84 -0.30137 130.921 0.390733 127.412 2.11745C123.902 3.84417 120.943 6.53584 118.872 9.8848C116.802 13.2338 115.704 17.1049 115.704 21.0557C115.704 25.0066 116.802 28.8777 118.872 32.2267C120.943 35.5756 123.902 38.2673 127.412 39.994C130.921 41.7207 134.84 42.4128 138.72 41.9912C142.6 41.5696 146.285 40.0513 149.353 37.6098C146.875 35.6412 144.873 33.1277 143.496 30.2597C142.12 27.3917 141.407 24.2443 141.409 21.0557Z" fill="#EB001B"/>
<path d="M183 21.0558C183 25.0065 181.902 28.8776 179.832 32.2266C177.762 35.5756 174.803 38.2672 171.293 39.994C167.783 41.7207 163.865 42.4128 159.985 41.9912C156.105 41.5696 152.42 40.0513 149.353 37.6098C151.828 35.6392 153.829 33.1254 155.205 30.2578C156.581 27.3902 157.296 24.2438 157.296 21.0558C157.296 17.8677 156.581 14.7213 155.205 11.8537C153.829 8.98616 151.828 6.47231 149.353 4.50173C152.42 2.06024 156.105 0.541915 159.985 0.120306C163.865 -0.301304 167.783 0.390811 171.293 2.11755C174.803 3.84428 177.762 6.53596 179.832 9.88492C181.902 13.2339 183 17.105 183 21.0558Z" fill="#F79E1B"/>
<path d="M181.015 34.1027V33.4248H181.285V33.2868H180.598V33.4248H180.868V34.1027H181.015ZM182.35 34.1027V33.2854H182.139L181.897 33.8475L181.654 33.2854H181.444V34.1027H181.592V33.4862L181.82 34.0177H181.974L182.201 33.4849V34.1027H182.35Z" fill="#F79E1B"/>
<path d="M34.7376 12.0706L22.7586 41.0038H14.9442L9.0489 17.913C8.99543 17.3727 8.80595 16.8553 8.49857 16.4103C8.19119 15.9653 7.77619 15.6076 7.29327 15.3714C4.97274 14.2471 2.52272 13.4203 0 12.9103L0.174395 12.0706H12.7549C13.5773 12.0696 14.3729 12.3661 14.9983 12.9067C15.6237 13.4473 16.0377 14.1965 16.1656 15.0189L19.2797 31.7627L26.9707 12.0706H34.7376ZM65.3573 31.5579C65.3898 23.9223 54.9318 23.4989 55.0013 20.0873C55.0241 19.0505 56.0004 17.9462 58.1362 17.664C60.6375 17.4232 63.1567 17.8706 65.4278 18.9588L66.7229 12.8207C64.5109 11.9831 62.1694 11.5501 59.8078 11.5421C52.4988 11.5421 47.3572 15.4724 47.316 21.1056C47.2693 25.2712 50.9888 27.5938 53.7853 28.9809C56.6685 30.3986 57.635 31.3086 57.6209 32.5754C57.6009 34.5166 55.3213 35.3758 53.1995 35.4083C50.5556 35.4668 47.9411 34.8372 45.6064 33.5798L44.2647 39.9226C46.8854 40.9504 49.6733 41.4712 52.4837 41.458C60.2537 41.458 65.3346 37.5735 65.3574 31.5579H65.3573ZM84.6581 41.0038H91.4941L85.5216 12.0706H79.2153C78.5408 12.0638 77.8799 12.2623 77.3183 12.6406C76.7567 13.0188 76.3203 13.5592 76.0658 14.1916L64.9722 41.0038H72.7367L74.2781 36.6828H83.762L84.6581 41.0038ZM76.4053 30.7534L80.2973 19.8876L82.5363 30.7534H76.4053ZM45.3016 12.0706L39.1891 41.0038H31.7958L37.9089 12.0706H45.3016Z" fill="#1A1F71"/>
</g>
<defs>
<clipPath id="clip0_638_2352">
<rect width="183" height="53" fill="white"/>
</clipPath>
</defs>
</svg>
