<svg width="29" height="30" viewBox="0 0 29 30" fill="none" xmlns="http://www.w3.org/2000/svg">
<path d="M9.65156 5.39067C8.2582 5.65434 7.08574 6.68559 6.6043 8.08013C6.44004 8.55473 6.42871 8.63091 6.42871 9.43364C6.43437 10.2422 6.4457 10.3067 6.60996 10.7696C7.27832 12.5801 9.01719 13.6817 10.8127 13.4239C12.1211 13.2305 13.2029 12.4395 13.7863 11.2383C14.1318 10.5411 14.2395 10.0079 14.2055 9.18169C14.1602 8.08598 13.843 7.3477 13.0557 6.53325C12.5572 6.01762 12.0871 5.72466 11.4131 5.50786C10.96 5.36723 10.099 5.30864 9.65156 5.39067ZM11.1922 7.43559C11.6283 7.64653 12.0021 8.02739 12.2174 8.48442C12.359 8.78325 12.376 8.88286 12.376 9.40434C12.376 9.89067 12.3533 10.0372 12.2457 10.2774C11.9625 10.9161 11.4641 11.3497 10.8184 11.5196C9.8668 11.7715 8.85293 11.2735 8.40547 10.336C8.2582 10.0254 8.24121 9.93169 8.24121 9.40434C8.24121 8.877 8.2582 8.78325 8.40547 8.4727C8.68301 7.88677 9.23242 7.42387 9.83848 7.26567C10.2123 7.17192 10.79 7.24223 11.1922 7.43559Z" fill="white"/>
<path d="M21.6251 7.64066C21.4949 7.71097 16.9863 11.4551 8.35424 18.6621C7.23842 19.5938 6.25854 20.4493 6.19057 20.5606C5.74877 21.2403 6.42846 22.1602 7.19311 21.92C7.33471 21.8789 8.11635 21.2637 9.50404 20.1094C19.5691 11.7364 22.6617 9.14066 22.7693 8.98245C23.0355 8.58402 22.8996 7.9805 22.4861 7.69339C22.2652 7.53519 21.863 7.51175 21.6251 7.64066Z" fill="white"/>
<path d="M18.3232 16.6055C16.9186 16.8809 15.7971 17.8946 15.31 19.3067C15.1627 19.7403 15.1514 19.8399 15.1514 20.625C15.1514 21.3985 15.1684 21.5157 15.3043 21.9024C15.5309 22.5469 15.7801 22.9453 16.2898 23.4727C17.4906 24.7266 19.2012 25.0078 20.7814 24.2168C21.2232 24 21.3988 23.8711 21.7783 23.4727C23.9307 21.2344 22.9508 17.461 20.0111 16.6758C19.5184 16.541 18.7877 16.5117 18.3232 16.6055ZM19.9092 18.627C20.3566 18.8438 20.7191 19.2071 20.9344 19.6641C21.0816 19.9746 21.0986 20.0684 21.0986 20.5957C21.0986 21.1231 21.0816 21.2168 20.9344 21.5274C20.7135 21.9903 20.3566 22.3477 19.8922 22.5762C19.558 22.7403 19.4561 22.7637 19.0313 22.7637C18.6064 22.7637 18.5045 22.7403 18.1703 22.5762C17.7059 22.3477 17.315 21.961 17.1168 21.5157C16.9809 21.2227 16.9639 21.1055 16.9639 20.5957C16.9639 20.1094 16.9865 19.9629 17.0941 19.7227C17.5982 18.586 18.833 18.1055 19.9092 18.627Z" fill="white"/>
</svg>
