<svg width="35" height="35" viewBox="0 0 35 35" fill="none" xmlns="http://www.w3.org/2000/svg">
<g opacity="0.65">
<path d="M1.40142 0.123043C0.724658 0.355465 0.211962 0.922848 0.0684077 1.59277C0.0137202 1.8457 4.83552e-05 6.38476 0.0137202 17.7051L0.034228 33.4619L0.177783 33.7764C0.369189 34.1865 0.813525 34.6309 1.22368 34.8223L1.53813 34.9658H14.4922H27.4463L27.7608 34.8223C28.171 34.6309 28.6153 34.1865 28.8067 33.7764C28.9434 33.4756 28.9502 33.3662 28.9708 30.625C28.9844 27.4941 28.9913 27.5352 28.5606 27.3232C28.3418 27.2139 28.2872 27.2139 28.0821 27.2959C27.6377 27.4805 27.6514 27.3643 27.6172 30.4336L27.5831 33.2363L27.3575 33.4346L27.1387 33.6328L14.4581 33.6191L1.77739 33.5986L1.59282 33.4072L1.40142 33.2227V17.5V1.77734L1.59282 1.59277L1.77739 1.40136L14.4581 1.38086L27.1387 1.36718L27.3575 1.56543L27.5831 1.76367L27.6172 5.76953L27.6514 9.77539L27.836 9.95312C28.0889 10.2061 28.5127 10.2061 28.7657 9.95312L28.9502 9.77539V5.65332C28.9502 1.58593 28.9502 1.53125 28.8067 1.22363C28.6153 0.813473 28.171 0.369137 27.7608 0.177731L27.4463 0.0341759L14.5948 0.020504C2.54302 0.00683212 1.7227 0.0136681 1.40142 0.123043Z" fill="#1E2533"/>
<path d="M13.371 3.79395C10.8964 4.30664 9.06434 6.02246 8.39442 8.45605C8.18251 9.21484 8.18251 10.7324 8.40126 11.5186C9.01649 13.8018 10.787 15.5381 13.0975 16.1123C13.747 16.2695 15.2372 16.2695 15.8866 16.1123C17.8007 15.6338 19.3182 14.4033 20.1659 12.6396C20.6171 11.6963 20.7401 11.1357 20.7401 9.98047C20.7401 9.17383 20.7059 8.88672 20.5897 8.45605C19.9608 6.17969 18.2655 4.48438 16.0165 3.88965C15.3192 3.70508 14.0272 3.65723 13.371 3.79395ZM15.9618 5.29102C16.7343 5.53711 17.3085 5.89258 17.9442 6.52832C18.5868 7.1709 18.9354 7.73828 19.1884 8.54492C19.3524 9.04395 19.3729 9.24219 19.3729 9.94629C19.3661 10.8828 19.2567 11.3955 18.8944 12.1338C18.4843 12.9609 18.539 12.9473 17.9579 12.332C17.5341 11.8877 16.8436 11.3682 16.5155 11.2588C16.4813 11.2451 16.5565 11.0264 16.6864 10.7666C16.8847 10.3633 16.9188 10.2197 16.9393 9.67285C16.9735 8.90723 16.8505 8.39453 16.5018 7.88184C16.037 7.19824 15.3466 6.83594 14.4921 6.83594C12.9608 6.83594 11.9628 8.01172 12.0448 9.71387C12.0653 10.2129 12.1063 10.377 12.3046 10.7734C12.4276 11.0264 12.5028 11.2451 12.4686 11.2588C12.1405 11.3682 11.4501 11.8877 11.0263 12.332C10.4452 12.9473 10.4999 12.9609 10.0897 12.1338C9.72059 11.375 9.61122 10.8896 9.61805 9.91211C9.61805 9.13965 9.63172 9.00293 9.82313 8.46289C10.1102 7.62891 10.4042 7.16406 11.0399 6.52832C11.6757 5.89258 12.2567 5.53027 13.0223 5.29785C13.7538 5.0791 13.8632 5.06543 14.6972 5.09277C15.2167 5.11328 15.5653 5.16797 15.9618 5.29102ZM15.1278 8.37402C15.4149 8.58594 15.5858 9.00293 15.5858 9.48828C15.5858 10.0283 15.4628 10.3223 15.1347 10.5684C14.9227 10.7324 14.8134 10.7666 14.4921 10.7666C13.8016 10.7666 13.3983 10.3018 13.3983 9.50879C13.3983 8.89355 13.6307 8.44922 14.0477 8.26465C14.2802 8.16211 14.9227 8.23047 15.1278 8.37402ZM15.2782 12.2705C16.1054 12.4824 16.9257 13.043 17.3016 13.6514L17.452 13.8975L17.288 14.0205C17.0077 14.2324 16.1942 14.6084 15.7225 14.7383C15.4149 14.8271 15.039 14.8613 14.4921 14.8613C13.9452 14.8613 13.5692 14.8271 13.2616 14.7383C12.7899 14.6084 11.9765 14.2324 11.6962 14.0205L11.5321 13.8975L11.6825 13.6514C11.7645 13.5146 11.997 13.2549 12.202 13.0635C13.036 12.3047 14.2186 11.9971 15.2782 12.2705Z" fill="#1E2533"/>
<path d="M31.418 8.62017C30.96 8.72954 30.3516 9.10552 30.0303 9.46099C29.6543 9.89849 21.0752 24.7325 20.9795 25.1221C20.8975 25.4708 20.3711 30.1739 20.3711 30.584C20.3711 30.9874 20.5762 31.2335 20.9521 31.2881C21.2529 31.3223 21.2803 31.3018 25.0537 28.5059L25.9492 27.8497L30.2627 20.3643C32.6348 16.2491 34.6377 12.7627 34.7129 12.6055C35.4033 11.2247 34.7539 9.4815 33.291 8.79107C32.9219 8.62017 32.751 8.58599 32.2656 8.56548C31.9443 8.55865 31.5684 8.57915 31.418 8.62017ZM32.6963 10.0147C33.0723 10.1719 33.332 10.4249 33.4961 10.8145C33.7285 11.3614 33.667 11.7305 33.1885 12.5782C32.9697 12.9542 32.7715 13.2618 32.7373 13.2618C32.6963 13.2618 32.1016 12.9336 31.4111 12.5372L30.1465 11.8126L30.2764 11.5938C30.3447 11.4776 30.4883 11.2247 30.5977 11.0401C30.9053 10.4932 31.1514 10.2129 31.4658 10.0557C31.8076 9.88482 32.3477 9.86431 32.6963 10.0147ZM30.8643 13.8018C31.5478 14.1983 32.0195 14.5127 32.0059 14.5674C31.9853 14.6563 25.3271 26.2227 25.2109 26.3663C25.1631 26.421 24.8008 26.2432 23.8848 25.7168C23.1943 25.3135 22.627 24.9512 22.627 24.917C22.627 24.876 23.4746 23.3721 24.5205 21.5674C29.6748 12.6329 29.4629 12.9815 29.5859 13.0567C29.6475 13.0909 30.2285 13.4258 30.8643 13.8018ZM24.124 27.4737C24.124 27.5215 21.9297 29.128 21.9023 29.1006C21.8818 29.0801 22.1416 26.7081 22.1895 26.4756C22.2168 26.3389 22.2783 26.3594 23.1738 26.879C23.7002 27.1866 24.1309 27.4532 24.124 27.4737Z" fill="#1E2533"/>
<path d="M5.26348 18.5458C5.00372 18.6689 4.83282 19.0722 4.92169 19.3183C5.03106 19.6054 5.18829 19.749 5.43438 19.7968C6.19317 19.9404 6.5213 18.8876 5.83087 18.5322C5.63946 18.4365 5.4754 18.4365 5.26348 18.5458Z" fill="#1E2533"/>
<path d="M8.23721 18.5186C7.79971 18.7031 7.6835 19.2705 8.01846 19.5986L8.20303 19.79L13.2958 19.8105L18.3817 19.8242L18.6073 19.626C18.7919 19.4619 18.8329 19.3799 18.8329 19.1406C18.8329 18.9014 18.7919 18.8193 18.6073 18.6553L18.3886 18.457L13.3778 18.4639C10.6298 18.4639 8.31241 18.4912 8.23721 18.5186Z" fill="#1E2533"/>
<path d="M5.26348 22.374C5.00372 22.497 4.83282 22.9003 4.92169 23.1464C5.03106 23.4335 5.18829 23.5771 5.43438 23.6249C6.19317 23.7685 6.5213 22.7158 5.83087 22.3603C5.63946 22.2646 5.4754 22.2646 5.26348 22.374Z" fill="#1E2533"/>
<path d="M8.23721 22.3467C7.79971 22.5312 7.6835 23.0986 8.01846 23.4268L8.20303 23.6182L13.2958 23.6387L18.3817 23.6523L18.6073 23.4541C18.7919 23.29 18.8329 23.208 18.8329 22.9688C18.8329 22.7295 18.7919 22.6475 18.6073 22.4834L18.3886 22.2852L13.3778 22.292C10.6298 22.292 8.31241 22.3193 8.23721 22.3467Z" fill="#1E2533"/>
<path d="M5.26348 26.2021C5.00372 26.3251 4.83282 26.7285 4.92169 26.9746C5.03106 27.2617 5.18829 27.4052 5.43438 27.4531C6.19317 27.5966 6.5213 26.5439 5.83087 26.1884C5.63946 26.0927 5.4754 26.0927 5.26348 26.2021Z" fill="#1E2533"/>
<path d="M8.23721 26.1748C7.79971 26.3594 7.6835 26.9268 8.01846 27.2549L8.20303 27.4463L13.2958 27.4668L18.3817 27.4805L18.6073 27.2822C18.7919 27.1182 18.8329 27.0361 18.8329 26.7969C18.8329 26.5576 18.7919 26.4756 18.6073 26.3115L18.3886 26.1133L13.3778 26.1201C10.6298 26.1201 8.31241 26.1475 8.23721 26.1748Z" fill="#1E2533"/>
<path d="M14.2461 30.0098C14.0273 30.0986 13.8086 30.4131 13.8086 30.6318C13.8086 30.7549 13.8838 30.9121 14.0068 31.0488L14.2051 31.2744L16.2969 31.2949L18.3818 31.3154L18.6074 31.1104C18.792 30.9463 18.833 30.8643 18.833 30.625C18.833 30.3857 18.792 30.3037 18.6074 30.1396L18.3887 29.9414L16.3857 29.9482C15.292 29.9482 14.3213 29.9756 14.2461 30.0098Z" fill="#1E2533"/>
</g>
</svg>
