<svg width="107" height="104" viewBox="0 0 107 104" fill="none" xmlns="http://www.w3.org/2000/svg">
<path d="M0.898633 11.7812C0.647852 11.8828 0.355273 12.1469 0.229883 12.3703C0.0626953 12.6547 0 24.6391 0 52.0609V91.3453L0.480664 91.7719L0.961328 92.2188H53.5209H106.101L106.54 91.7516L107 91.2844V51.9594C107 13.5484 107 12.6344 106.603 12.1672L106.206 11.6797L53.7717 11.6391C23.8242 11.6187 1.17031 11.6797 0.898633 11.7812ZM103.865 52V89.375H53.5H3.13477V52V14.625H53.5H103.865V52Z" fill="#1E2533"/>
<path d="M7.7954 18.525C7.54461 18.6469 7.25204 18.9719 7.12665 19.2766C6.95946 19.6422 6.91766 29.2906 6.93856 52.2641L7.00125 84.7438L7.50282 85.1297C7.98348 85.5156 9.0075 85.5156 53.5421 85.5156H99.0798L99.5814 85.0078L100.104 84.5203V51.9391C100.104 20.15 100.104 19.3375 99.7067 18.8703L99.3097 18.3828L53.772 18.3422C22.1526 18.3219 8.10887 18.3828 7.7954 18.525ZM97.178 45.2156C97.178 60.3484 97.0944 69.0422 96.969 68.9609C96.8646 68.9 94.3149 65.8125 91.3056 62.0953C88.2962 58.3781 85.5585 55.0469 85.2032 54.6813C84.4509 53.9094 83.8239 53.8484 83.0716 54.4781C82.779 54.7422 77.7216 60.8766 71.8282 68.1281C65.9349 75.3797 61.0237 81.3516 60.9192 81.3719C60.7938 81.4125 53.1868 72.15 43.9915 60.7953C34.8171 49.4609 27.0847 40.0766 26.813 39.9547C26.4786 39.8125 26.186 39.8125 25.8307 39.975C25.58 40.0766 21.9436 44.4031 17.764 49.5422C13.6052 54.7016 10.1569 58.9063 10.1151 58.9063C10.0733 58.9063 10.0315 50.4563 10.0315 40.1172V21.3281H53.6048H97.178V45.2156ZM41.9225 63.1109C50.4282 73.5719 57.4501 82.2453 57.5337 82.4078C57.68 82.6313 53.772 82.6719 33.8557 82.6719H10.0315V73.2672L10.0524 63.8828L18.0983 53.9703C22.5288 48.5266 26.2278 44.0781 26.3323 44.0781C26.4159 44.0781 33.4378 52.6297 41.9225 63.1109ZM90.6786 66.1375L97.178 74.1813L97.1362 78.3859L97.0735 82.5703L80.6056 82.6313C71.5356 82.6516 64.1585 82.5906 64.2003 82.5094C64.3257 82.1844 83.9075 58.0938 84.0329 58.0938C84.1165 58.0938 87.105 61.7094 90.6786 66.1375Z" fill="#FA7846"/>
<path d="M60.501 34.8359C57.5335 35.5672 55.4018 37.2531 54.0225 39.9141C52.0999 43.6312 52.7895 47.8156 55.8198 50.7609C60.2711 55.0875 67.6274 54.2953 71.0756 49.1156C72.7893 46.5156 73.0192 42.9812 71.5981 40.1172C69.5919 35.9937 64.8688 33.7391 60.501 34.8359ZM65.7256 38.1672C70.8249 40.6047 70.6577 47.7344 65.454 50.0297C63.9493 50.6797 61.5042 50.6391 59.9577 49.9484C57.6379 48.8922 56.2377 46.9219 56.0497 44.4641C55.6735 39.3047 60.9399 35.8719 65.7256 38.1672Z" fill="#1E2533"/>
</svg>
