<svg width="36" height="34" viewBox="0 0 36 34" fill="none" xmlns="http://www.w3.org/2000/svg">
<path d="M19.2872 0.0929411C18.3309 0.318722 18.7739 -0.0730746 9.34497 8.82536C1.19575 16.5218 0.569969 17.1328 0.373094 17.5312C-0.133156 18.5406 -0.112062 19.4968 0.429344 20.4465C0.738719 20.9976 13.852 33.3758 14.3934 33.6281C15.4129 34.1062 16.3833 34.1129 17.4379 33.6547C17.8668 33.4687 18.4434 32.9375 26.6559 25.1746C34.777 17.498 35.4309 16.8672 35.6348 16.4687C35.7473 16.2297 35.8809 15.8578 35.9301 15.6386C35.9864 15.3531 36.0004 13.414 35.9864 8.83201L35.9653 2.4238L35.8036 2.05193C35.452 1.22185 34.7067 0.51794 33.8348 0.185909L33.434 0.0331762L26.5434 0.0198934C21.1856 0.013252 19.5754 0.0265348 19.2872 0.0929411ZM29.7426 5.45857C30.7481 5.93669 30.3965 7.30466 29.2715 7.30466C28.0973 7.30466 27.8934 5.70427 29.0325 5.37888C29.3208 5.29255 29.4122 5.30583 29.7426 5.45857ZM18.809 7.93552C19.9833 8.22771 20.8903 9.08435 21.1997 10.2066C21.734 12.1457 20.1379 14.0781 18.0004 14.0781C15.0754 14.0781 13.5989 10.7047 15.6731 8.7656C16.5309 7.96872 17.684 7.66325 18.809 7.93552ZM25.2426 16.1234C25.5942 16.2894 25.8051 16.6215 25.8051 17C25.8051 17.3785 25.5942 17.7105 25.2426 17.8765C25.0106 17.9894 24.5184 17.9961 18.0004 17.9961C11.4825 17.9961 10.9903 17.9894 10.7583 17.8765C10.0059 17.5246 10.0059 16.4754 10.7583 16.1234C10.9903 16.0105 11.4825 16.0039 18.0004 16.0039C24.5184 16.0039 25.0106 16.0105 25.2426 16.1234ZM18.7528 19.9883C19.5895 20.1742 20.4754 20.8051 20.8692 21.5023C21.5934 22.7906 21.3895 24.2449 20.3278 25.2343C18.4856 26.9476 15.4551 26.1574 14.8012 23.7933C14.3512 22.173 15.4059 20.473 17.1567 20.0148C17.5364 19.9152 18.345 19.9019 18.7528 19.9883Z" fill="#FC8C5F"/>
<path d="M17.4384 9.98086C16.3626 10.5187 16.7845 12.0859 18.0009 12.0859C19.2173 12.0859 19.6392 10.5187 18.5634 9.98086C18.1767 9.78828 17.8251 9.78828 17.4384 9.98086Z" fill="#FC8C5F"/>
<path d="M17.5781 21.9605C17.1352 22.1332 16.8047 22.5914 16.8047 23.0297C16.8047 23.4215 17.0719 23.8398 17.4375 24.0191C17.8242 24.2117 18.1758 24.2117 18.5625 24.0191C19.3289 23.6406 19.3992 22.5781 18.6891 22.1066C18.4641 21.9539 17.8102 21.8676 17.5781 21.9605Z" fill="#FC8C5F"/>
</svg>
