<svg width="126" height="38" viewBox="0 0 126 38" fill="none" xmlns="http://www.w3.org/2000/svg">
<path d="M121.631 37.3371C121.817 37.5411 122.133 37.5554 122.337 37.3692L125.66 34.335C125.864 34.1488 125.879 33.8326 125.692 33.6287C125.506 33.4247 125.19 33.4104 124.986 33.5965L122.032 36.2936L119.335 33.3397C119.149 33.1357 118.833 33.1214 118.629 33.3076C118.425 33.4938 118.41 33.81 118.597 34.0139L121.631 37.3371ZM1.00252 0.446545C0.365365 6.37221 1.8508 10.4591 5.04661 13.0975C8.20475 15.7048 12.9395 16.8147 18.6207 17.0387C29.9824 17.4865 45.5594 14.3931 61.0782 11.9313C76.6582 9.45982 92.1814 7.6232 103.613 10.4773C109.312 11.9 113.949 14.4784 117.077 18.6879C120.206 22.898 121.872 28.8043 121.501 36.9773L122.499 37.0227C122.878 28.6957 121.185 22.5395 117.88 18.0914C114.574 13.6427 109.704 10.9672 103.855 9.50708C92.1936 6.59555 76.4667 8.47769 60.9216 10.9437C45.3153 13.4194 29.8922 16.4822 18.6601 16.0395C13.0443 15.8181 8.58374 14.721 5.68326 12.3263C2.82044 9.96282 1.38397 6.25279 1.99679 0.553455L1.00252 0.446545Z" fill="#FA7846"/>
</svg>
